<svg xmlns="http://www.w3.org/2000/svg" viewBox="0 0 320 400" role="img">
  <defs><linearGradient id="bronze" x1="0" y1="0" x2="1" y2="1"><stop stop-color="#ead7a7"/><stop offset=".48" stop-color="#a96d3f"/><stop offset="1" stop-color="#513d3b"/></linearGradient></defs>
  <path fill="#1c191d" d="M39 400c7-81 33-120 80-145l41-15 42 15c47 25 73 64 79 145H39Z"/>
  <path fill="url(#bronze)" stroke="#201a1d" stroke-width="5" d="M160 28c63 0 103 54 99 122-3 53-21 93-51 120l-48 24-48-24c-30-27-48-67-51-120C57 82 97 28 160 28Z"/>
  <path fill="#2c2025" d="m76 119 84-54 84 54-17 19-67-25-67 25Z"/>
  <path fill="#5c4137" d="m83 163 77 16 77-16-20 39-57 12-57-12Z"/>
  <path fill="#18181a" d="M103 169q18-18 37 0-18 16-37 0Zm40 0q18-18 37 0-18 16-37 0Z"/>
  <path fill="#d89c52" d="M123 168h12v3h-12zm40 0h12v3h-12z"/>
  <path fill="none" stroke="#282024" stroke-linecap="round" stroke-width="7" d="m135 225 25 7 25-7"/>
  <path fill="none" stroke="#f0ca83" stroke-width="2" d="M69 146h38m126 0h18"/>
  <circle cx="105" cy="290" r="7" fill="#d29b59"/><circle cx="215" cy="290" r="7" fill="#d29b59"/>
</svg>
